<svg id="visual" viewBox="0 0 960 540" width="960" height="540" xmlns="http://www.w3.org/2000/svg" xmlns:xlink="http://www.w3.org/1999/xlink" version="1.1"><rect x="0" y="0" width="960" height="540" fill="#001220"></rect><defs><linearGradient id="grad1_0" x1="43.8%" y1="0%" x2="100%" y2="100%"><stop offset="14.444444444444446%" stop-color="#fbae3c" stop-opacity="1"></stop><stop offset="85.55555555555554%" stop-color="#fbae3c" stop-opacity="1"></stop></linearGradient></defs><defs><linearGradient id="grad1_1" x1="43.8%" y1="0%" x2="100%" y2="100%"><stop offset="14.444444444444446%" stop-color="#fbae3c" stop-opacity="1"></stop><stop offset="85.55555555555554%" stop-color="#001220" stop-opacity="1"></stop></linearGradient></defs><defs><linearGradient id="grad2_0" x1="0%" y1="0%" x2="56.3%" y2="100%"><stop offset="14.444444444444446%" stop-color="#fbae3c" stop-opacity="1"></stop><stop offset="85.55555555555554%" stop-color="#fbae3c" stop-opacity="1"></stop></linearGradient></defs><defs><linearGradient id="grad2_1" x1="0%" y1="0%" x2="56.3%" y2="100%"><stop offset="14.444444444444446%" stop-color="#001220" stop-opacity="1"></stop><stop offset="85.55555555555554%" stop-color="#fbae3c" stop-opacity="1"></stop></linearGradient></defs><g transform="translate(960, 0)"><path d="M0 486C-68 478.4 -136 470.7 -179.9 434.2C-223.8 397.7 -243.6 332.4 -290.6 290.6C-337.7 248.8 -411.9 230.5 -449 186C-486.1 141.5 -486.1 70.7 -486 0L0 0Z" fill="#96446e"></path><path d="M0 243C-34 239.2 -68 235.4 -89.9 217.1C-111.9 198.9 -121.8 166.2 -145.3 145.3C-168.8 124.4 -206 115.3 -224.5 93C-243.1 70.7 -243 35.4 -243 0L0 0Z" fill="#fbae3c"></path></g><g transform="translate(0, 540)"><path d="M0 -486C57.1 -463.7 114.2 -441.3 174.5 -421.3C234.8 -401.2 298.3 -383.5 343.7 -343.7C389 -303.8 416.3 -242 437 -181C457.7 -120.1 471.9 -60 486 0L0 0Z" fill="#96446e"></path><path d="M0 -243C28.6 -231.8 57.1 -220.7 87.3 -210.6C117.4 -200.6 149.1 -191.7 171.8 -171.8C194.5 -151.9 208.1 -121 218.5 -90.5C228.9 -60 235.9 -30 243 0L0 0Z" fill="#fbae3c"></path></g></svg>